<svg width="32" height="32" viewBox="0 0 32 32" fill="none" xmlns="http://www.w3.org/2000/svg">
<g clip-path="url(#clip0_343_475)">
<mask id="mask0_343_475" style="mask-type:luminance" maskUnits="userSpaceOnUse" x="0" y="0" width="32" height="32">
<path d="M32 0H0V32H32V0Z" fill="white"/>
</mask>
<g mask="url(#mask0_343_475)">
<path d="M31.9996 6.75684C31.9996 6.51155 31.9996 6.26618 31.9996 6.0209C31.9778 5.48571 31.9552 4.95053 31.8439 4.41535C31.7544 3.88017 31.5987 3.38959 31.3535 2.89902C31.1083 2.4307 30.7962 1.98473 30.417 1.60563L29.1232 0.668998C28.6328 0.42371 28.1424 0.267632 27.6068 0.156161C27.0721 0.0669498 26.5365 0.0223438 26.0017 0.0223438C25.7565 -7.80448e-07 6.26652 0 6.02131 0C5.48571 0.0223446 4.95011 0.044606 4.41535 0.133817C3.87975 0.223028 3.38934 0.379105 2.89893 0.646737C2.40852 0.892025 1.96247 1.20418 1.58337 1.58328C1.20426 1.96239 0.892104 2.40836 0.6469 2.87667C0.401696 3.36725 0.245201 3.85783 0.156493 4.39309C0.0443514 4.95053 0.0225956 5.48571 0 6.0209C0 6.26618 0 25.7561 0 26.0015C0.0225956 26.5366 0.044351 27.0718 0.133897 27.607C0.222605 28.1422 0.3791 28.6551 0.624304 29.1233C0.869508 29.5916 1.18167 30.0376 1.56077 30.4167C1.93987 30.7958 2.38593 31.1081 2.85458 31.3534C3.34499 31.5986 3.8354 31.7547 4.371 31.8662C4.90576 31.9554 5.44136 32 5.97612 32C6.22133 32 25.7113 32 25.9565 32C26.4921 31.9777 27.0269 31.9554 27.5625 31.8662C28.0972 31.7771 28.5885 31.6209 29.0789 31.3534C29.5467 31.1081 29.9928 30.7958 30.3719 30.4167C30.751 30.0376 31.0631 29.5916 31.3083 29.1233C31.5544 28.6328 31.71 28.1422 31.7996 27.607C31.8883 27.0718 31.9335 26.5366 31.9552 26.0015C31.9996 25.7338 32.0222 7.04674 31.9996 6.75684Z" fill="#371938"/>
<path d="M25.7775 14.9854C25.3097 10.5478 21.8308 7.09129 17.4824 6.57837V10.4139C20.4927 10.9937 22.4995 13.8927 21.9865 16.9254C21.5856 19.2669 19.7788 21.0955 17.4824 21.5638V25.3993C22.6116 24.7526 26.3131 20.1366 25.7775 14.9854Z" fill="white"/>
<path d="M6.24303 16.97C6.68908 21.4077 10.1906 24.8641 14.5164 25.377V22.0766V21.5638V10.4139V9.38818V6.57837C9.38717 7.20276 5.68567 11.8188 6.24303 16.97Z" fill="#B15BA3"/>
</g>
</g>
<defs>
<clipPath id="clip0_343_475">
<rect width="32" height="32" fill="white"/>
</clipPath>
</defs>
</svg>
